{
	"asset":{
		"generator":"Khronos glTF Blender I/O v4.4.55",
		"version":"2.0"
	},
	"extensionsUsed":[
		"KHR_materials_emissive_strength"
	],
	"scene":0,
	"scenes":[
		{
			"name":"Scene",
			"nodes":[
				0
			]
		}
	],
	"nodes":[
		{
			"mesh":0,
			"name":"Lights",
			"scale":[
				3.1240601539611816,
				3.1240601539611816,
				3.1240601539611816
			]
		}
	],
	"materials":[
		{
			"doubleSided":true,
			"emissiveFactor":[
				1,
				1,
				1
			],
			"extensions":{
				"KHR_materials_emissive_strength":{
					"emissiveStrength":10
				}
			},
			"name":"Material.273",
			"pbrMetallicRoughness":{
				"baseColorFactor":[
					0.800000011920929,
					0.800000011920929,
					0.800000011920929,
					1
				],
				"metallicFactor":0,
				"roughnessFactor":0.5
			}
		},
		{
			"doubleSided":true,
			"name":"Concrete Pavement",
			"normalTexture":{
				"index":0
			},
			"pbrMetallicRoughness":{
				"baseColorTexture":{
					"index":1
				},
				"metallicFactor":0,
				"metallicRoughnessTexture":{
					"index":2
				}
			}
		},
		{
			"doubleSided":true,
			"name":"Light iron",
			"normalTexture":{
				"index":3,
				"scale":0.30000001192092896
			},
			"pbrMetallicRoughness":{
				"baseColorTexture":{
					"index":4
				},
				"metallicRoughnessTexture":{
					"index":5
				}
			}
		},
		{
			"alphaMode":"BLEND",
			"doubleSided":true,
			"name":"Glass",
			"normalTexture":{
				"index":6,
				"scale":0.10000000149011612
			},
			"pbrMetallicRoughness":{
				"baseColorFactor":[
					0.6443073153495789,
					0.619080126285553,
					0.549913763999939,
					1
				],
				"baseColorTexture":{
					"index":7
				},
				"metallicRoughnessTexture":{
					"index":8
				}
			}
		}
	],
	"meshes":[
		{
			"name":"Lights",
			"primitives":[
				{
					"attributes":{
						"POSITION":0,
						"NORMAL":1,
						"TEXCOORD_0":2,
						"TEXCOORD_1":3
					},
					"indices":4,
					"material":0
				},
				{
					"attributes":{
						"POSITION":5,
						"NORMAL":6,
						"TEXCOORD_0":7,
						"TEXCOORD_1":8
					},
					"indices":9,
					"material":1
				},
				{
					"attributes":{
						"POSITION":10,
						"NORMAL":11,
						"TEXCOORD_0":12,
						"TEXCOORD_1":13
					},
					"indices":14,
					"material":2
				},
				{
					"attributes":{
						"POSITION":15,
						"NORMAL":16,
						"TEXCOORD_0":17,
						"TEXCOORD_1":18
					},
					"indices":19,
					"material":3
				}
			]
		}
	],
	"textures":[
		{
			"sampler":0,
			"source":0
		},
		{
			"sampler":0,
			"source":1
		},
		{
			"sampler":0,
			"source":2
		},
		{
			"sampler":0,
			"source":3
		},
		{
			"sampler":0,
			"source":4
		},
		{
			"sampler":0,
			"source":5
		},
		{
			"sampler":0,
			"source":6
		},
		{
			"sampler":0,
			"source":7
		},
		{
			"sampler":0,
			"source":8
		}
	],
	"images":[
		{
			"mimeType":"image/jpeg",
			"name":"wlrvaf3_8K_Normal",
			"uri":"wlrvaf3_8K_Normal.jpg"
		},
		{
			"mimeType":"image/jpeg",
			"name":"wlrvaf3_8K_Albedo",
			"uri":"wlrvaf3_8K_Albedo.jpg"
		},
		{
			"mimeType":"image/png",
			"name":"wlrvaf3_8K_Roughness",
			"uri":"wlrvaf3_8K_Roughness.png"
		},
		{
			"mimeType":"image/jpeg",
			"name":"tiled_plane_DefaultMaterial_Normal",
			"uri":"tiled_plane_DefaultMaterial_Normal.jpg"
		},
		{
			"mimeType":"image/jpeg",
			"name":"tiled_plane_DefaultMaterial_BaseColor",
			"uri":"tiled_plane_DefaultMaterial_BaseColor.jpg"
		},
		{
			"mimeType":"image/png",
			"name":"tiled_plane_DefaultMaterial_Roughness",
			"uri":"tiled_plane_DefaultMaterial_Roughness.png"
		},
		{
			"mimeType":"image/jpeg",
			"name":"garage_floor_nor_gl_4k",
			"uri":"garage_floor_nor_gl_4k.jpg"
		},
		{
			"mimeType":"image/png",
			"name":"SP_2K_Roughness",
			"uri":"SP_2K_Roughness.png"
		},
		{
			"mimeType":"image/png",
			"name":"SP_2K_Roughness",
			"uri":"SP_2K_Roughness-1.png"
		}
	],
	"accessors":[
		{
			"bufferView":0,
			"componentType":5126,
			"count":1853,
			"max":[
				16.840808868408203,
				0.16706807911396027,
				8.151535034179688
			],
			"min":[
				-9.336225509643555,
				-0.16115321218967438,
				-22.78834342956543
			],
			"type":"VEC3"
		},
		{
			"bufferView":1,
			"componentType":5126,
			"count":1853,
			"type":"VEC3"
		},
		{
			"bufferView":2,
			"componentType":5126,
			"count":1853,
			"type":"VEC2"
		},
		{
			"bufferView":3,
			"componentType":5126,
			"count":1853,
			"type":"VEC2"
		},
		{
			"bufferView":4,
			"componentType":5123,
			"count":4008,
			"type":"SCALAR"
		},
		{
			"bufferView":5,
			"componentType":5126,
			"count":2797,
			"max":[
				16.676698684692383,
				7.8592915534973145,
				7.987425327301025
			],
			"min":[
				-9.172117233276367,
				0.006449341773986816,
				-22.62423324584961
			],
			"type":"VEC3"
		},
		{
			"bufferView":6,
			"componentType":5126,
			"count":2797,
			"type":"VEC3"
		},
		{
			"bufferView":7,
			"componentType":5126,
			"count":2797,
			"type":"VEC2"
		},
		{
			"bufferView":8,
			"componentType":5126,
			"count":2797,
			"type":"VEC2"
		},
		{
			"bufferView":9,
			"componentType":5123,
			"count":9408,
			"type":"SCALAR"
		},
		{
			"bufferView":10,
			"componentType":5126,
			"count":1108,
			"max":[
				16.676698684692383,
				0.06818068027496338,
				7.987425327301025
			],
			"min":[
				-9.172117233276367,
				-0.005100846290588379,
				-22.62423324584961
			],
			"type":"VEC3"
		},
		{
			"bufferView":11,
			"componentType":5126,
			"count":1108,
			"type":"VEC3"
		},
		{
			"bufferView":12,
			"componentType":5126,
			"count":1108,
			"type":"VEC2"
		},
		{
			"bufferView":13,
			"componentType":5126,
			"count":1108,
			"type":"VEC2"
		},
		{
			"bufferView":14,
			"componentType":5123,
			"count":3816,
			"type":"SCALAR"
		},
		{
			"bufferView":15,
			"componentType":5126,
			"count":85,
			"max":[
				10.403923988342285,
				7.618865489959717,
				-3.0329673290252686
			],
			"min":[
				3.101405143737793,
				7.424686908721924,
				-19.690818786621094
			],
			"type":"VEC3"
		},
		{
			"bufferView":16,
			"componentType":5126,
			"count":85,
			"type":"VEC3"
		},
		{
			"bufferView":17,
			"componentType":5126,
			"count":85,
			"type":"VEC2"
		},
		{
			"bufferView":18,
			"componentType":5126,
			"count":85,
			"type":"VEC2"
		},
		{
			"bufferView":19,
			"componentType":5123,
			"count":390,
			"type":"SCALAR"
		}
	],
	"bufferViews":[
		{
			"buffer":0,
			"byteLength":22236,
			"byteOffset":0,
			"target":34962
		},
		{
			"buffer":0,
			"byteLength":22236,
			"byteOffset":22236,
			"target":34962
		},
		{
			"buffer":0,
			"byteLength":14824,
			"byteOffset":44472,
			"target":34962
		},
		{
			"buffer":0,
			"byteLength":14824,
			"byteOffset":59296,
			"target":34962
		},
		{
			"buffer":0,
			"byteLength":8016,
			"byteOffset":74120,
			"target":34963
		},
		{
			"buffer":0,
			"byteLength":33564,
			"byteOffset":82136,
			"target":34962
		},
		{
			"buffer":0,
			"byteLength":33564,
			"byteOffset":115700,
			"target":34962
		},
		{
			"buffer":0,
			"byteLength":22376,
			"byteOffset":149264,
			"target":34962
		},
		{
			"buffer":0,
			"byteLength":22376,
			"byteOffset":171640,
			"target":34962
		},
		{
			"buffer":0,
			"byteLength":18816,
			"byteOffset":194016,
			"target":34963
		},
		{
			"buffer":0,
			"byteLength":13296,
			"byteOffset":212832,
			"target":34962
		},
		{
			"buffer":0,
			"byteLength":13296,
			"byteOffset":226128,
			"target":34962
		},
		{
			"buffer":0,
			"byteLength":8864,
			"byteOffset":239424,
			"target":34962
		},
		{
			"buffer":0,
			"byteLength":8864,
			"byteOffset":248288,
			"target":34962
		},
		{
			"buffer":0,
			"byteLength":7632,
			"byteOffset":257152,
			"target":34963
		},
		{
			"buffer":0,
			"byteLength":1020,
			"byteOffset":264784,
			"target":34962
		},
		{
			"buffer":0,
			"byteLength":1020,
			"byteOffset":265804,
			"target":34962
		},
		{
			"buffer":0,
			"byteLength":680,
			"byteOffset":266824,
			"target":34962
		},
		{
			"buffer":0,
			"byteLength":680,
			"byteOffset":267504,
			"target":34962
		},
		{
			"buffer":0,
			"byteLength":780,
			"byteOffset":268184,
			"target":34963
		}
	],
	"samplers":[
		{
			"magFilter":9729,
			"minFilter":9987
		}
	],
	"buffers":[
		{
			"byteLength":268964,
			"uri":"Daniel.bin"
		}
	]
}
