{
	"asset":{
		"generator":"Khronos glTF Blender I/O v4.2.60",
		"version":"2.0"
	},
	"extensionsUsed":[
		"KHR_materials_emissive_strength",
		"KHR_materials_specular",
		"KHR_materials_ior",
		"KHR_texture_transform"
	],
	"extensionsRequired":[
		"KHR_texture_transform"
	],
	"scene":0,
	"scenes":[
		{
			"name":"Scene",
			"nodes":[
				0,
				1,
				2,
				3,
				4,
				5,
				6
			]
		}
	],
	"nodes":[
		{
			"mesh":0,
			"name":"Corners",
			"scale":[
				17.453420639038086,
				17.453420639038086,
				17.453420639038086
			],
			"translation":[
				15.670331954956055,
				4.829722881317139,
				-26.012939453125
			]
		},
		{
			"mesh":1,
			"name":"Pillars",
			"scale":[
				17.453420639038086,
				17.453420639038086,
				17.453420639038086
			],
			"translation":[
				-15.592735290527344,
				-0.5817175507545471,
				25.173587799072266
			]
		},
		{
			"mesh":2,
			"name":"Top pillars",
			"scale":[
				17.453420639038086,
				17.453420639038086,
				17.453420639038086
			],
			"translation":[
				-15.592735290527344,
				-0.5817175507545471,
				25.173587799072266
			]
		},
		{
			"mesh":3,
			"name":"Carpet",
			"scale":[
				17.453420639038086,
				17.453420639038086,
				17.453420639038086
			],
			"translation":[
				-15.592735290527344,
				-0.5817175507545471,
				25.173587799072266
			]
		},
		{
			"mesh":4,
			"name":"Lights",
			"scale":[
				17.453420639038086,
				17.453420639038086,
				17.453420639038086
			],
			"translation":[
				-15.592735290527344,
				1.4549657106399536,
				25.173587799072266
			]
		},
		{
			"mesh":5,
			"name":"Rooft",
			"scale":[
				17.453420639038086,
				17.453420639038086,
				17.453420639038086
			],
			"translation":[
				-15.592735290527344,
				-0.5817175507545471,
				25.173587799072266
			]
		},
		{
			"mesh":6,
			"name":"Rooft.001",
			"scale":[
				17.453420639038086,
				17.453420639038086,
				17.453420639038086
			],
			"translation":[
				-15.592735290527344,
				-0.5817175507545471,
				25.173587799072266
			]
		}
	],
	"materials":[
		{
			"doubleSided":true,
			"name":"Wood",
			"normalTexture":{
				"extensions":{
					"KHR_texture_transform":{
						"offset":[
							0,
							-1.5
						],
						"scale":[
							2.5,
							2.5
						]
					}
				},
				"index":0
			},
			"pbrMetallicRoughness":{
				"baseColorTexture":{
					"extensions":{
						"KHR_texture_transform":{
							"offset":[
								0,
								-1.5
							],
							"scale":[
								2.5,
								2.5
							]
						}
					},
					"index":1
				},
				"metallicFactor":0,
				"metallicRoughnessTexture":{
					"extensions":{
						"KHR_texture_transform":{
							"offset":[
								0,
								-1.5
							],
							"scale":[
								2.5,
								2.5
							]
						}
					},
					"index":2
				}
			}
		},
		{
			"doubleSided":true,
			"name":"Marble",
			"normalTexture":{
				"extensions":{
					"KHR_texture_transform":{
						"offset":[
							0,
							-1
						],
						"scale":[
							2,
							2
						]
					}
				},
				"index":3,
				"scale":0.25
			},
			"pbrMetallicRoughness":{
				"baseColorTexture":{
					"extensions":{
						"KHR_texture_transform":{
							"offset":[
								0,
								-1
							],
							"scale":[
								2,
								2
							]
						}
					},
					"index":4
				},
				"metallicFactor":0.37272727489471436,
				"metallicRoughnessTexture":{
					"extensions":{
						"KHR_texture_transform":{
							"offset":[
								0,
								-1
							],
							"scale":[
								2,
								2
							]
						}
					},
					"index":5
				}
			}
		},
		{
			"doubleSided":true,
			"extensions":{
				"KHR_materials_specular":{
					"specularFactor":0
				},
				"KHR_materials_ior":{
					"ior":1.4500000476837158
				}
			},
			"name":"Red Carpet",
			"normalTexture":{
				"index":6,
				"texCoord":1
			},
			"pbrMetallicRoughness":{
				"baseColorTexture":{
					"index":7,
					"texCoord":1
				},
				"metallicFactor":0,
				"metallicRoughnessTexture":{
					"index":8,
					"texCoord":1
				}
			}
		},
		{
			"doubleSided":true,
			"emissiveFactor":[
				1,
				1,
				1
			],
			"extensions":{
				"KHR_materials_emissive_strength":{
					"emissiveStrength":200
				}
			},
			"name":"Material.001",
			"pbrMetallicRoughness":{
				"baseColorFactor":[
					0.800000011920929,
					0.800000011920929,
					0.800000011920929,
					1
				],
				"metallicFactor":0,
				"roughnessFactor":0.5
			}
		},
		{
			"doubleSided":true,
			"name":"Concrete wall",
			"normalTexture":{
				"index":9,
				"scale":1.2999999523162842,
				"texCoord":1
			},
			"pbrMetallicRoughness":{
				"baseColorTexture":{
					"index":10,
					"texCoord":1
				},
				"metallicFactor":0,
				"metallicRoughnessTexture":{
					"index":11,
					"texCoord":1
				}
			}
		},
		{
			"alphaMode":"BLEND",
			"doubleSided":true,
			"name":"Glass.001",
			"normalTexture":{
				"index":12,
				"scale":0.10000000149011612,
				"texCoord":1
			},
			"pbrMetallicRoughness":{
				"baseColorFactor":[
					0.6200805306434631,
					0.8792001605033875,
					1,
					1
				],
				"baseColorTexture":{
					"index":13,
					"texCoord":1
				},
				"metallicFactor":0.30000001192092896,
				"metallicRoughnessTexture":{
					"index":14,
					"texCoord":1
				}
			}
		}
	],
	"meshes":[
		{
			"name":"edges",
			"primitives":[
				{
					"attributes":{
						"POSITION":0,
						"NORMAL":1,
						"TEXCOORD_0":2
					},
					"indices":3,
					"material":0
				}
			]
		},
		{
			"name":"pillars",
			"primitives":[
				{
					"attributes":{
						"POSITION":4,
						"NORMAL":5,
						"TEXCOORD_0":6
					},
					"indices":7,
					"material":1
				}
			]
		},
		{
			"name":"top pillars",
			"primitives":[
				{
					"attributes":{
						"POSITION":8,
						"NORMAL":9,
						"TEXCOORD_0":10
					},
					"indices":11,
					"material":0
				}
			]
		},
		{
			"name":"carpet",
			"primitives":[
				{
					"attributes":{
						"POSITION":12,
						"NORMAL":13,
						"TEXCOORD_0":14,
						"TEXCOORD_1":15
					},
					"indices":16,
					"material":2
				}
			]
		},
		{
			"name":"lights",
			"primitives":[
				{
					"attributes":{
						"POSITION":17,
						"NORMAL":18,
						"TEXCOORD_0":19
					},
					"indices":20,
					"material":3
				}
			]
		},
		{
			"name":"rooft",
			"primitives":[
				{
					"attributes":{
						"POSITION":21,
						"NORMAL":22,
						"TEXCOORD_0":23,
						"TEXCOORD_1":24
					},
					"indices":25,
					"material":4
				},
				{
					"attributes":{
						"POSITION":26,
						"NORMAL":27,
						"TEXCOORD_0":28,
						"TEXCOORD_1":29
					},
					"indices":30,
					"material":5
				}
			]
		},
		{
			"name":"Walls",
			"primitives":[
				{
					"attributes":{
						"POSITION":31,
						"NORMAL":32,
						"TEXCOORD_0":33,
						"TEXCOORD_1":34
					},
					"indices":35,
					"material":4
				},
				{
					"attributes":{
						"POSITION":36,
						"NORMAL":37,
						"TEXCOORD_0":38,
						"TEXCOORD_1":39
					},
					"indices":40,
					"material":5
				}
			]
		}
	],
	"textures":[
		{
			"sampler":0,
			"source":0
		},
		{
			"sampler":0,
			"source":1
		},
		{
			"sampler":0,
			"source":2
		},
		{
			"sampler":0,
			"source":3
		},
		{
			"sampler":0,
			"source":4
		},
		{
			"sampler":0,
			"source":5
		},
		{
			"sampler":0,
			"source":6
		},
		{
			"sampler":0,
			"source":7
		},
		{
			"sampler":0,
			"source":8
		},
		{
			"sampler":0,
			"source":9
		},
		{
			"sampler":0,
			"source":10
		},
		{
			"sampler":0,
			"source":11
		},
		{
			"sampler":0,
			"source":12
		},
		{
			"sampler":0,
			"source":13
		},
		{
			"sampler":0,
			"source":14
		}
	],
	"images":[
		{
			"mimeType":"image/png",
			"name":"Wood02_normal",
			"uri":"Wood02_normal.png"
		},
		{
			"mimeType":"image/png",
			"name":"Wood02_basecolor",
			"uri":"Wood02_basecolor.png"
		},
		{
			"mimeType":"image/png",
			"name":"Wood02_PBRset",
			"uri":"Wood02_PBRset.png"
		},
		{
			"mimeType":"image/jpeg",
			"name":"marble-10_normal",
			"uri":"marble-10_normal.jpg"
		},
		{
			"mimeType":"image/jpeg",
			"name":"marble-10_diffuse",
			"uri":"marble-10_diffuse.jpg"
		},
		{
			"mimeType":"image/png",
			"name":"marble-10_smooth",
			"uri":"marble-10_smooth.png"
		},
		{
			"mimeType":"image/jpeg",
			"name":"red_carpet_normal",
			"uri":"red_carpet_normal.jpg"
		},
		{
			"mimeType":"image/jpeg",
			"name":"red_carpet_color",
			"uri":"red_carpet_color.jpg"
		},
		{
			"mimeType":"image/png",
			"name":"red_carpet_roughness",
			"uri":"red_carpet_roughness.png"
		},
		{
			"mimeType":"image/jpeg",
			"name":"Concrete wall_Normal",
			"uri":"Concrete%20wall_Normal.jpg"
		},
		{
			"mimeType":"image/jpeg",
			"name":"Concrete wall_BaseColor",
			"uri":"Concrete%20wall_BaseColor.jpg"
		},
		{
			"mimeType":"image/png",
			"name":"Concrete wall_Roughness",
			"uri":"Concrete%20wall_Roughness.png"
		},
		{
			"mimeType":"image/jpeg",
			"name":"garage_floor_nor_gl_4k",
			"uri":"garage_floor_nor_gl_4k.jpg"
		},
		{
			"mimeType":"image/png",
			"name":"SP_2K_Roughness",
			"uri":"SP_2K_Roughness.png"
		},
		{
			"mimeType":"image/png",
			"name":"SP_2K_Roughness",
			"uri":"SP_2K_Roughness-1.png"
		}
	],
	"accessors":[
		{
			"bufferView":0,
			"componentType":5126,
			"count":1070,
			"max":[
				5.992958068847656,
				0.34805554151535034,
				4.267983913421631
			],
			"min":[
				-5.424452304840088,
				-0.34805554151535034,
				-7.074719429016113
			],
			"type":"VEC3"
		},
		{
			"bufferView":1,
			"componentType":5126,
			"count":1070,
			"type":"VEC3"
		},
		{
			"bufferView":2,
			"componentType":5126,
			"count":1070,
			"type":"VEC2"
		},
		{
			"bufferView":3,
			"componentType":5123,
			"count":4992,
			"type":"SCALAR"
		},
		{
			"bufferView":4,
			"componentType":5126,
			"count":1261,
			"max":[
				7.79317045211792,
				0.6173568964004517,
				-1.201887845993042
			],
			"min":[
				-3.642206907272339,
				0.0027445568703114986,
				-10.022429466247559
			],
			"type":"VEC3"
		},
		{
			"bufferView":5,
			"componentType":5126,
			"count":1261,
			"type":"VEC3"
		},
		{
			"bufferView":6,
			"componentType":5126,
			"count":1261,
			"type":"VEC2"
		},
		{
			"bufferView":7,
			"componentType":5123,
			"count":4464,
			"type":"SCALAR"
		},
		{
			"bufferView":8,
			"componentType":5126,
			"count":4202,
			"max":[
				7.811171054840088,
				0.638800323009491,
				-1.1838877201080322
			],
			"min":[
				-3.6602067947387695,
				-0.004119663964956999,
				-10.04042911529541
			],
			"type":"VEC3"
		},
		{
			"bufferView":9,
			"componentType":5126,
			"count":4202,
			"type":"VEC3"
		},
		{
			"bufferView":10,
			"componentType":5126,
			"count":4202,
			"type":"VEC2"
		},
		{
			"bufferView":11,
			"componentType":5123,
			"count":13128,
			"type":"SCALAR"
		},
		{
			"bufferView":12,
			"componentType":5126,
			"count":810,
			"max":[
				7.623432159423828,
				0.005761665292084217,
				1.2335591316223145
			],
			"min":[
				-3.44637393951416,
				-0.00023965118452906609,
				-9.83084774017334
			],
			"type":"VEC3"
		},
		{
			"bufferView":13,
			"componentType":5126,
			"count":810,
			"type":"VEC3"
		},
		{
			"bufferView":14,
			"componentType":5126,
			"count":810,
			"type":"VEC2"
		},
		{
			"bufferView":15,
			"componentType":5126,
			"count":810,
			"type":"VEC2"
		},
		{
			"bufferView":16,
			"componentType":5123,
			"count":1836,
			"type":"SCALAR"
		},
		{
			"bufferView":17,
			"componentType":5126,
			"count":16430,
			"max":[
				7.73286247253418,
				0.37400221824645996,
				1.301223635673523
			],
			"min":[
				-3.5818989276885986,
				0.3123266100883484,
				-9.96108341217041
			],
			"type":"VEC3"
		},
		{
			"bufferView":18,
			"componentType":5126,
			"count":16430,
			"type":"VEC3"
		},
		{
			"bufferView":19,
			"componentType":5126,
			"count":16430,
			"type":"VEC2"
		},
		{
			"bufferView":20,
			"componentType":5123,
			"count":66960,
			"type":"SCALAR"
		},
		{
			"bufferView":21,
			"componentType":5126,
			"count":2614,
			"max":[
				7.722170352935791,
				0.6387819051742554,
				1.3103382587432861
			],
			"min":[
				-3.57120680809021,
				0.0027449969202280045,
				-9.95142936706543
			],
			"type":"VEC3"
		},
		{
			"bufferView":22,
			"componentType":5126,
			"count":2614,
			"type":"VEC3"
		},
		{
			"bufferView":23,
			"componentType":5126,
			"count":2614,
			"type":"VEC2"
		},
		{
			"bufferView":24,
			"componentType":5126,
			"count":2614,
			"type":"VEC2"
		},
		{
			"bufferView":25,
			"componentType":5123,
			"count":9726,
			"type":"SCALAR"
		},
		{
			"bufferView":26,
			"componentType":5126,
			"count":397,
			"max":[
				7.604421138763428,
				0.6173561811447144,
				-0.5159518718719482
			],
			"min":[
				-1.2568566799163818,
				0.617355227470398,
				-9.559015274047852
			],
			"type":"VEC3"
		},
		{
			"bufferView":27,
			"componentType":5126,
			"count":397,
			"type":"VEC3"
		},
		{
			"bufferView":28,
			"componentType":5126,
			"count":397,
			"type":"VEC2"
		},
		{
			"bufferView":29,
			"componentType":5126,
			"count":397,
			"type":"VEC2"
		},
		{
			"bufferView":30,
			"componentType":5123,
			"count":1374,
			"type":"SCALAR"
		},
		{
			"bufferView":31,
			"componentType":5126,
			"count":1963,
			"max":[
				7.722170352935791,
				0.6387819051742554,
				1.3103382587432861
			],
			"min":[
				-3.57120680809021,
				0.0027449969202280045,
				-9.95142936706543
			],
			"type":"VEC3"
		},
		{
			"bufferView":32,
			"componentType":5126,
			"count":1963,
			"type":"VEC3"
		},
		{
			"bufferView":33,
			"componentType":5126,
			"count":1963,
			"type":"VEC2"
		},
		{
			"bufferView":34,
			"componentType":5126,
			"count":1963,
			"type":"VEC2"
		},
		{
			"bufferView":35,
			"componentType":5123,
			"count":7656,
			"type":"SCALAR"
		},
		{
			"bufferView":36,
			"componentType":5126,
			"count":56,
			"max":[
				3.904458999633789,
				0.5509660840034485,
				-3.140864133834839
			],
			"min":[
				2.145960569381714,
				0.0611942894756794,
				-5.185240268707275
			],
			"type":"VEC3"
		},
		{
			"bufferView":37,
			"componentType":5126,
			"count":56,
			"type":"VEC3"
		},
		{
			"bufferView":38,
			"componentType":5126,
			"count":56,
			"type":"VEC2"
		},
		{
			"bufferView":39,
			"componentType":5126,
			"count":56,
			"type":"VEC2"
		},
		{
			"bufferView":40,
			"componentType":5123,
			"count":216,
			"type":"SCALAR"
		}
	],
	"bufferViews":[
		{
			"buffer":0,
			"byteLength":12840,
			"byteOffset":0,
			"target":34962
		},
		{
			"buffer":0,
			"byteLength":12840,
			"byteOffset":12840,
			"target":34962
		},
		{
			"buffer":0,
			"byteLength":8560,
			"byteOffset":25680,
			"target":34962
		},
		{
			"buffer":0,
			"byteLength":9984,
			"byteOffset":34240,
			"target":34963
		},
		{
			"buffer":0,
			"byteLength":15132,
			"byteOffset":44224,
			"target":34962
		},
		{
			"buffer":0,
			"byteLength":15132,
			"byteOffset":59356,
			"target":34962
		},
		{
			"buffer":0,
			"byteLength":10088,
			"byteOffset":74488,
			"target":34962
		},
		{
			"buffer":0,
			"byteLength":8928,
			"byteOffset":84576,
			"target":34963
		},
		{
			"buffer":0,
			"byteLength":50424,
			"byteOffset":93504,
			"target":34962
		},
		{
			"buffer":0,
			"byteLength":50424,
			"byteOffset":143928,
			"target":34962
		},
		{
			"buffer":0,
			"byteLength":33616,
			"byteOffset":194352,
			"target":34962
		},
		{
			"buffer":0,
			"byteLength":26256,
			"byteOffset":227968,
			"target":34963
		},
		{
			"buffer":0,
			"byteLength":9720,
			"byteOffset":254224,
			"target":34962
		},
		{
			"buffer":0,
			"byteLength":9720,
			"byteOffset":263944,
			"target":34962
		},
		{
			"buffer":0,
			"byteLength":6480,
			"byteOffset":273664,
			"target":34962
		},
		{
			"buffer":0,
			"byteLength":6480,
			"byteOffset":280144,
			"target":34962
		},
		{
			"buffer":0,
			"byteLength":3672,
			"byteOffset":286624,
			"target":34963
		},
		{
			"buffer":0,
			"byteLength":197160,
			"byteOffset":290296,
			"target":34962
		},
		{
			"buffer":0,
			"byteLength":197160,
			"byteOffset":487456,
			"target":34962
		},
		{
			"buffer":0,
			"byteLength":131440,
			"byteOffset":684616,
			"target":34962
		},
		{
			"buffer":0,
			"byteLength":133920,
			"byteOffset":816056,
			"target":34963
		},
		{
			"buffer":0,
			"byteLength":31368,
			"byteOffset":949976,
			"target":34962
		},
		{
			"buffer":0,
			"byteLength":31368,
			"byteOffset":981344,
			"target":34962
		},
		{
			"buffer":0,
			"byteLength":20912,
			"byteOffset":1012712,
			"target":34962
		},
		{
			"buffer":0,
			"byteLength":20912,
			"byteOffset":1033624,
			"target":34962
		},
		{
			"buffer":0,
			"byteLength":19452,
			"byteOffset":1054536,
			"target":34963
		},
		{
			"buffer":0,
			"byteLength":4764,
			"byteOffset":1073988,
			"target":34962
		},
		{
			"buffer":0,
			"byteLength":4764,
			"byteOffset":1078752,
			"target":34962
		},
		{
			"buffer":0,
			"byteLength":3176,
			"byteOffset":1083516,
			"target":34962
		},
		{
			"buffer":0,
			"byteLength":3176,
			"byteOffset":1086692,
			"target":34962
		},
		{
			"buffer":0,
			"byteLength":2748,
			"byteOffset":1089868,
			"target":34963
		},
		{
			"buffer":0,
			"byteLength":23556,
			"byteOffset":1092616,
			"target":34962
		},
		{
			"buffer":0,
			"byteLength":23556,
			"byteOffset":1116172,
			"target":34962
		},
		{
			"buffer":0,
			"byteLength":15704,
			"byteOffset":1139728,
			"target":34962
		},
		{
			"buffer":0,
			"byteLength":15704,
			"byteOffset":1155432,
			"target":34962
		},
		{
			"buffer":0,
			"byteLength":15312,
			"byteOffset":1171136,
			"target":34963
		},
		{
			"buffer":0,
			"byteLength":672,
			"byteOffset":1186448,
			"target":34962
		},
		{
			"buffer":0,
			"byteLength":672,
			"byteOffset":1187120,
			"target":34962
		},
		{
			"buffer":0,
			"byteLength":448,
			"byteOffset":1187792,
			"target":34962
		},
		{
			"buffer":0,
			"byteLength":448,
			"byteOffset":1188240,
			"target":34962
		},
		{
			"buffer":0,
			"byteLength":432,
			"byteOffset":1188688,
			"target":34963
		}
	],
	"samplers":[
		{
			"magFilter":9729,
			"minFilter":9987
		}
	],
	"buffers":[
		{
			"byteLength":1189120,
			"uri":"Path.bin"
		}
	]
}
