{
	"asset":{
		"generator":"Khronos glTF Blender I/O v4.4.55",
		"version":"2.0"
	},
	"extensionsUsed":[
		"KHR_materials_emissive_strength"
	],
	"scene":0,
	"scenes":[
		{
			"name":"Scene",
			"nodes":[
				0,
				1
			]
		}
	],
	"nodes":[
		{
			"mesh":0,
			"name":"Lights",
			"scale":[
				3.1240601539611816,
				3.1240601539611816,
				3.1240601539611816
			]
		},
		{
			"mesh":1,
			"name":"Lights.002",
			"scale":[
				3.1240601539611816,
				3.1240601539611816,
				3.1240601539611816
			]
		}
	],
	"materials":[
		{
			"doubleSided":true,
			"name":"Concrete Pavement",
			"normalTexture":{
				"index":0,
				"texCoord":1
			},
			"pbrMetallicRoughness":{
				"baseColorTexture":{
					"index":1,
					"texCoord":1
				},
				"metallicFactor":0,
				"metallicRoughnessTexture":{
					"index":2,
					"texCoord":1
				}
			}
		},
		{
			"alphaMode":"BLEND",
			"doubleSided":true,
			"name":"Glass",
			"normalTexture":{
				"index":3,
				"scale":0.10000000149011612,
				"texCoord":1
			},
			"pbrMetallicRoughness":{
				"baseColorFactor":[
					0.6443073153495789,
					0.619080126285553,
					0.549913763999939,
					1
				],
				"baseColorTexture":{
					"index":4,
					"texCoord":1
				},
				"metallicRoughnessTexture":{
					"index":5,
					"texCoord":1
				}
			}
		},
		{
			"doubleSided":true,
			"emissiveFactor":[
				1,
				1,
				1
			],
			"extensions":{
				"KHR_materials_emissive_strength":{
					"emissiveStrength":10
				}
			},
			"name":"Material.234",
			"pbrMetallicRoughness":{
				"baseColorFactor":[
					0.800000011920929,
					0.800000011920929,
					0.800000011920929,
					1
				],
				"metallicFactor":0,
				"roughnessFactor":0.5
			}
		},
		{
			"doubleSided":true,
			"name":"Material.276",
			"pbrMetallicRoughness":{
				"baseColorFactor":[
					0,
					0,
					0,
					1
				],
				"metallicFactor":0,
				"roughnessFactor":0.5
			}
		},
		{
			"doubleSided":true,
			"name":"Light iron",
			"normalTexture":{
				"index":6,
				"scale":0.30000001192092896,
				"texCoord":1
			},
			"pbrMetallicRoughness":{
				"baseColorTexture":{
					"index":7,
					"texCoord":1
				},
				"metallicRoughnessTexture":{
					"index":8,
					"texCoord":1
				}
			}
		}
	],
	"meshes":[
		{
			"name":"Lights",
			"primitives":[
				{
					"attributes":{
						"POSITION":0,
						"NORMAL":1,
						"TEXCOORD_0":2,
						"TEXCOORD_1":3
					},
					"indices":4,
					"material":0
				},
				{
					"attributes":{
						"POSITION":5,
						"NORMAL":6,
						"TEXCOORD_0":7,
						"TEXCOORD_1":8
					},
					"indices":9,
					"material":1
				},
				{
					"attributes":{
						"POSITION":10,
						"NORMAL":11,
						"TEXCOORD_0":12,
						"TEXCOORD_1":13
					},
					"indices":14,
					"material":2
				},
				{
					"attributes":{
						"POSITION":15,
						"NORMAL":16,
						"TEXCOORD_0":17,
						"TEXCOORD_1":18
					},
					"indices":19,
					"material":3
				}
			]
		},
		{
			"name":"Lights.003",
			"primitives":[
				{
					"attributes":{
						"POSITION":20,
						"NORMAL":21,
						"TEXCOORD_0":22,
						"TEXCOORD_1":23
					},
					"indices":24,
					"material":4
				}
			]
		}
	],
	"textures":[
		{
			"sampler":0,
			"source":0
		},
		{
			"sampler":0,
			"source":1
		},
		{
			"sampler":0,
			"source":2
		},
		{
			"sampler":0,
			"source":3
		},
		{
			"sampler":0,
			"source":4
		},
		{
			"sampler":0,
			"source":5
		},
		{
			"sampler":0,
			"source":6
		},
		{
			"sampler":0,
			"source":7
		},
		{
			"sampler":0,
			"source":8
		}
	],
	"images":[
		{
			"mimeType":"image/jpeg",
			"name":"wlrvaf3_8K_Normal",
			"uri":"wlrvaf3_8K_Normal.jpg"
		},
		{
			"mimeType":"image/jpeg",
			"name":"wlrvaf3_8K_Albedo",
			"uri":"wlrvaf3_8K_Albedo.jpg"
		},
		{
			"mimeType":"image/png",
			"name":"wlrvaf3_8K_Roughness",
			"uri":"wlrvaf3_8K_Roughness.png"
		},
		{
			"mimeType":"image/jpeg",
			"name":"garage_floor_nor_gl_4k",
			"uri":"garage_floor_nor_gl_4k.jpg"
		},
		{
			"mimeType":"image/png",
			"name":"SP_2K_Roughness",
			"uri":"SP_2K_Roughness.png"
		},
		{
			"mimeType":"image/png",
			"name":"SP_2K_Roughness",
			"uri":"SP_2K_Roughness-1.png"
		},
		{
			"mimeType":"image/jpeg",
			"name":"tiled_plane_DefaultMaterial_Normal",
			"uri":"tiled_plane_DefaultMaterial_Normal.jpg"
		},
		{
			"mimeType":"image/jpeg",
			"name":"tiled_plane_DefaultMaterial_BaseColor",
			"uri":"tiled_plane_DefaultMaterial_BaseColor.jpg"
		},
		{
			"mimeType":"image/png",
			"name":"tiled_plane_DefaultMaterial_Roughness",
			"uri":"tiled_plane_DefaultMaterial_Roughness.png"
		}
	],
	"accessors":[
		{
			"bufferView":0,
			"componentType":5126,
			"count":2759,
			"max":[
				16.676698684692383,
				7.8592915534973145,
				7.987425327301025
			],
			"min":[
				-9.172117233276367,
				0.006449341773986816,
				-22.62423324584961
			],
			"type":"VEC3"
		},
		{
			"bufferView":1,
			"componentType":5126,
			"count":2759,
			"type":"VEC3"
		},
		{
			"bufferView":2,
			"componentType":5126,
			"count":2759,
			"type":"VEC2"
		},
		{
			"bufferView":3,
			"componentType":5126,
			"count":2759,
			"type":"VEC2"
		},
		{
			"bufferView":4,
			"componentType":5123,
			"count":9408,
			"type":"SCALAR"
		},
		{
			"bufferView":5,
			"componentType":5126,
			"count":85,
			"max":[
				10.403923988342285,
				7.618865489959717,
				-3.0329673290252686
			],
			"min":[
				3.101405143737793,
				7.424686908721924,
				-19.690818786621094
			],
			"type":"VEC3"
		},
		{
			"bufferView":6,
			"componentType":5126,
			"count":85,
			"type":"VEC3"
		},
		{
			"bufferView":7,
			"componentType":5126,
			"count":85,
			"type":"VEC2"
		},
		{
			"bufferView":8,
			"componentType":5126,
			"count":85,
			"type":"VEC2"
		},
		{
			"bufferView":9,
			"componentType":5123,
			"count":390,
			"type":"SCALAR"
		},
		{
			"bufferView":10,
			"componentType":5126,
			"count":1843,
			"max":[
				16.840808868408203,
				0.16706807911396027,
				8.151535034179688
			],
			"min":[
				-9.336225509643555,
				-0.16115321218967438,
				-22.78834342956543
			],
			"type":"VEC3"
		},
		{
			"bufferView":11,
			"componentType":5126,
			"count":1843,
			"type":"VEC3"
		},
		{
			"bufferView":12,
			"componentType":5126,
			"count":1843,
			"type":"VEC2"
		},
		{
			"bufferView":13,
			"componentType":5126,
			"count":1843,
			"type":"VEC2"
		},
		{
			"bufferView":14,
			"componentType":5123,
			"count":4008,
			"type":"SCALAR"
		},
		{
			"bufferView":15,
			"componentType":5126,
			"count":192,
			"max":[
				-1.2701969146728516,
				6.11007022857666,
				4.5211663246154785
			],
			"min":[
				-3.9465537071228027,
				1.3701547384262085,
				1.833698034286499
			],
			"type":"VEC3"
		},
		{
			"bufferView":16,
			"componentType":5126,
			"count":192,
			"type":"VEC3"
		},
		{
			"bufferView":17,
			"componentType":5126,
			"count":192,
			"type":"VEC2"
		},
		{
			"bufferView":18,
			"componentType":5126,
			"count":192,
			"type":"VEC2"
		},
		{
			"bufferView":19,
			"componentType":5123,
			"count":336,
			"type":"SCALAR"
		},
		{
			"bufferView":20,
			"componentType":5126,
			"count":1048,
			"max":[
				16.676698684692383,
				0.06818068027496338,
				7.987425327301025
			],
			"min":[
				-9.172117233276367,
				-0.005100846290588379,
				-22.62423324584961
			],
			"type":"VEC3"
		},
		{
			"bufferView":21,
			"componentType":5126,
			"count":1048,
			"type":"VEC3"
		},
		{
			"bufferView":22,
			"componentType":5126,
			"count":1048,
			"type":"VEC2"
		},
		{
			"bufferView":23,
			"componentType":5126,
			"count":1048,
			"type":"VEC2"
		},
		{
			"bufferView":24,
			"componentType":5123,
			"count":3816,
			"type":"SCALAR"
		}
	],
	"bufferViews":[
		{
			"buffer":0,
			"byteLength":33108,
			"byteOffset":0,
			"target":34962
		},
		{
			"buffer":0,
			"byteLength":33108,
			"byteOffset":33108,
			"target":34962
		},
		{
			"buffer":0,
			"byteLength":22072,
			"byteOffset":66216,
			"target":34962
		},
		{
			"buffer":0,
			"byteLength":22072,
			"byteOffset":88288,
			"target":34962
		},
		{
			"buffer":0,
			"byteLength":18816,
			"byteOffset":110360,
			"target":34963
		},
		{
			"buffer":0,
			"byteLength":1020,
			"byteOffset":129176,
			"target":34962
		},
		{
			"buffer":0,
			"byteLength":1020,
			"byteOffset":130196,
			"target":34962
		},
		{
			"buffer":0,
			"byteLength":680,
			"byteOffset":131216,
			"target":34962
		},
		{
			"buffer":0,
			"byteLength":680,
			"byteOffset":131896,
			"target":34962
		},
		{
			"buffer":0,
			"byteLength":780,
			"byteOffset":132576,
			"target":34963
		},
		{
			"buffer":0,
			"byteLength":22116,
			"byteOffset":133356,
			"target":34962
		},
		{
			"buffer":0,
			"byteLength":22116,
			"byteOffset":155472,
			"target":34962
		},
		{
			"buffer":0,
			"byteLength":14744,
			"byteOffset":177588,
			"target":34962
		},
		{
			"buffer":0,
			"byteLength":14744,
			"byteOffset":192332,
			"target":34962
		},
		{
			"buffer":0,
			"byteLength":8016,
			"byteOffset":207076,
			"target":34963
		},
		{
			"buffer":0,
			"byteLength":2304,
			"byteOffset":215092,
			"target":34962
		},
		{
			"buffer":0,
			"byteLength":2304,
			"byteOffset":217396,
			"target":34962
		},
		{
			"buffer":0,
			"byteLength":1536,
			"byteOffset":219700,
			"target":34962
		},
		{
			"buffer":0,
			"byteLength":1536,
			"byteOffset":221236,
			"target":34962
		},
		{
			"buffer":0,
			"byteLength":672,
			"byteOffset":222772,
			"target":34963
		},
		{
			"buffer":0,
			"byteLength":12576,
			"byteOffset":223444,
			"target":34962
		},
		{
			"buffer":0,
			"byteLength":12576,
			"byteOffset":236020,
			"target":34962
		},
		{
			"buffer":0,
			"byteLength":8384,
			"byteOffset":248596,
			"target":34962
		},
		{
			"buffer":0,
			"byteLength":8384,
			"byteOffset":256980,
			"target":34962
		},
		{
			"buffer":0,
			"byteLength":7632,
			"byteOffset":265364,
			"target":34963
		}
	],
	"samplers":[
		{
			"magFilter":9729,
			"minFilter":9987
		}
	],
	"buffers":[
		{
			"byteLength":272996,
			"uri":"Untitled.bin"
		}
	]
}
