{
	"asset":{
		"generator":"Khronos glTF Blender I/O v4.2.60",
		"version":"2.0"
	},
	"extensionsUsed":[
		"KHR_materials_emissive_strength",
		"KHR_materials_specular",
		"KHR_materials_ior",
		"KHR_texture_transform"
	],
	"extensionsRequired":[
		"KHR_texture_transform"
	],
	"scene":0,
	"scenes":[
		{
			"name":"Scene",
			"nodes":[
				0,
				1,
				2,
				3,
				4,
				5,
				6,
				7,
				8,
				9
			]
		}
	],
	"nodes":[
		{
			"mesh":0,
			"name":"B\u00e9zierCircle",
			"scale":[
				17.453420639038086,
				17.453420639038086,
				17.453420639038086
			],
			"translation":[
				-15.592735290527344,
				-0.5817175507545471,
				25.173587799072266
			]
		},
		{
			"mesh":1,
			"name":"B\u00e9zierCircle.001",
			"scale":[
				17.453420639038086,
				17.453420639038086,
				17.453420639038086
			],
			"translation":[
				15.670331954956055,
				4.829722881317139,
				-26.012939453125
			]
		},
		{
			"mesh":2,
			"name":"B\u00e9zierCircle.002",
			"scale":[
				17.453420639038086,
				17.453420639038086,
				17.453420639038086
			],
			"translation":[
				-15.592735290527344,
				-0.5817175507545471,
				25.173587799072266
			]
		},
		{
			"mesh":3,
			"name":"B\u00e9zierCircle.003",
			"scale":[
				17.453420639038086,
				17.453420639038086,
				17.453420639038086
			],
			"translation":[
				-15.592735290527344,
				-0.5817175507545471,
				25.173587799072266
			]
		},
		{
			"mesh":4,
			"name":"B\u00e9zierCircle.004",
			"scale":[
				17.453420639038086,
				17.453420639038086,
				17.453420639038086
			],
			"translation":[
				-15.592735290527344,
				-0.5817175507545471,
				25.173587799072266
			]
		},
		{
			"mesh":5,
			"name":"B\u00e9zierCircle.005",
			"scale":[
				17.453420639038086,
				17.453420639038086,
				17.453420639038086
			],
			"translation":[
				-15.592735290527344,
				-0.5817175507545471,
				25.173587799072266
			]
		},
		{
			"mesh":6,
			"name":"Plane",
			"scale":[
				163.56788635253906,
				163.56788635253906,
				163.56788635253906
			],
			"translation":[
				-15.592735290527344,
				-0.5817175507545471,
				-93.7005386352539
			]
		},
		{
			"mesh":7,
			"name":"Cube",
			"scale":[
				17.453420639038086,
				17.453420639038086,
				17.453420639038086
			],
			"translation":[
				-15.592735290527344,
				1.4549657106399536,
				25.173587799072266
			]
		},
		{
			"name":"B\u00e9zierCircle.007",
			"scale":[
				17.453420639038086,
				17.453420639038086,
				17.453420639038086
			],
			"translation":[
				-15.592735290527344,
				-0.5817175507545471,
				25.173587799072266
			]
		},
		{
			"name":"B\u00e9zierCircle.008",
			"scale":[
				17.453420639038086,
				17.453420639038086,
				17.453420639038086
			],
			"translation":[
				-15.592735290527344,
				-0.5817175507545471,
				25.173587799072266
			]
		}
	],
	"materials":[
		{
			"doubleSided":true,
			"name":"Concrete wall",
			"normalTexture":{
				"index":0,
				"scale":1.2999999523162842,
				"texCoord":1
			},
			"pbrMetallicRoughness":{
				"baseColorTexture":{
					"index":1,
					"texCoord":1
				},
				"metallicFactor":0,
				"metallicRoughnessTexture":{
					"index":2,
					"texCoord":1
				}
			}
		},
		{
			"alphaMode":"BLEND",
			"doubleSided":true,
			"name":"Glass",
			"normalTexture":{
				"index":3,
				"scale":0.6000000238418579,
				"texCoord":1
			},
			"pbrMetallicRoughness":{
				"baseColorFactor":[
					0.6060401201248169,
					0.8000074625015259,
					0.7610412836074829,
					1
				],
				"baseColorTexture":{
					"index":4,
					"texCoord":1
				},
				"metallicRoughnessTexture":{
					"index":5,
					"texCoord":1
				}
			}
		},
		{
			"doubleSided":true,
			"name":"Wood",
			"normalTexture":{
				"extensions":{
					"KHR_texture_transform":{
						"offset":[
							0,
							-1.5
						],
						"scale":[
							2.5,
							2.5
						]
					}
				},
				"index":6
			},
			"pbrMetallicRoughness":{
				"baseColorTexture":{
					"extensions":{
						"KHR_texture_transform":{
							"offset":[
								0,
								-1.5
							],
							"scale":[
								2.5,
								2.5
							]
						}
					},
					"index":7
				},
				"metallicFactor":0,
				"metallicRoughnessTexture":{
					"extensions":{
						"KHR_texture_transform":{
							"offset":[
								0,
								-1.5
							],
							"scale":[
								2.5,
								2.5
							]
						}
					},
					"index":8
				}
			}
		},
		{
			"doubleSided":true,
			"name":"Marble",
			"normalTexture":{
				"extensions":{
					"KHR_texture_transform":{
						"offset":[
							0,
							-1
						],
						"scale":[
							2,
							2
						]
					}
				},
				"index":9,
				"scale":0.25
			},
			"pbrMetallicRoughness":{
				"baseColorTexture":{
					"extensions":{
						"KHR_texture_transform":{
							"offset":[
								0,
								-1
							],
							"scale":[
								2,
								2
							]
						}
					},
					"index":10
				},
				"metallicFactor":0.37272727489471436,
				"metallicRoughnessTexture":{
					"extensions":{
						"KHR_texture_transform":{
							"offset":[
								0,
								-1
							],
							"scale":[
								2,
								2
							]
						}
					},
					"index":11
				}
			}
		},
		{
			"doubleSided":true,
			"extensions":{
				"KHR_materials_specular":{
					"specularFactor":0
				},
				"KHR_materials_ior":{
					"ior":1.4500000476837158
				}
			},
			"name":"Red Carpet",
			"normalTexture":{
				"index":12,
				"texCoord":1
			},
			"pbrMetallicRoughness":{
				"baseColorTexture":{
					"index":13,
					"texCoord":1
				},
				"metallicFactor":0,
				"metallicRoughnessTexture":{
					"index":14,
					"texCoord":1
				}
			}
		},
		{
			"doubleSided":true,
			"emissiveFactor":[
				1,
				1,
				1
			],
			"extensions":{
				"KHR_materials_emissive_strength":{
					"emissiveStrength":200
				}
			},
			"name":"Material.001",
			"pbrMetallicRoughness":{
				"baseColorFactor":[
					0.800000011920929,
					0.800000011920929,
					0.800000011920929,
					1
				],
				"metallicFactor":0,
				"roughnessFactor":0.5
			}
		}
	],
	"meshes":[
		{
			"name":"Mesh",
			"primitives":[
				{
					"attributes":{
						"POSITION":0,
						"NORMAL":1,
						"TEXCOORD_0":2,
						"TEXCOORD_1":3
					},
					"indices":4,
					"material":0
				},
				{
					"attributes":{
						"POSITION":5,
						"NORMAL":6,
						"TEXCOORD_0":7,
						"TEXCOORD_1":8
					},
					"indices":9,
					"material":1
				}
			]
		},
		{
			"name":"B\u00e9zierCircle.001",
			"primitives":[
				{
					"attributes":{
						"POSITION":10,
						"NORMAL":11,
						"TEXCOORD_0":12
					},
					"indices":13,
					"material":2
				}
			]
		},
		{
			"name":"B\u00e9zierCircle.002",
			"primitives":[
				{
					"attributes":{
						"POSITION":14,
						"NORMAL":15,
						"TEXCOORD_0":16
					},
					"indices":17,
					"material":3
				}
			]
		},
		{
			"name":"B\u00e9zierCircle.003",
			"primitives":[
				{
					"attributes":{
						"POSITION":18,
						"NORMAL":19,
						"TEXCOORD_0":20
					},
					"indices":21,
					"material":2
				}
			]
		},
		{
			"name":"B\u00e9zierCircle.003",
			"primitives":[
				{
					"attributes":{
						"POSITION":22,
						"NORMAL":23,
						"TEXCOORD_0":24,
						"TEXCOORD_1":25
					},
					"indices":26,
					"material":4
				}
			]
		},
		{
			"name":"B\u00e9zierCircle.005",
			"primitives":[
				{
					"attributes":{
						"POSITION":27,
						"NORMAL":28,
						"TEXCOORD_0":29
					},
					"indices":30,
					"material":2
				}
			]
		},
		{
			"name":"Plane",
			"primitives":[
				{
					"attributes":{
						"POSITION":31,
						"NORMAL":32,
						"TEXCOORD_0":33
					},
					"indices":34
				}
			]
		},
		{
			"name":"Cube",
			"primitives":[
				{
					"attributes":{
						"POSITION":35,
						"NORMAL":36,
						"TEXCOORD_0":37
					},
					"indices":38,
					"material":5
				}
			]
		}
	],
	"textures":[
		{
			"sampler":0,
			"source":0
		},
		{
			"sampler":0,
			"source":1
		},
		{
			"sampler":0,
			"source":2
		},
		{
			"sampler":0,
			"source":3
		},
		{
			"sampler":0,
			"source":4
		},
		{
			"sampler":0,
			"source":5
		},
		{
			"sampler":0,
			"source":6
		},
		{
			"sampler":0,
			"source":7
		},
		{
			"sampler":0,
			"source":8
		},
		{
			"sampler":0,
			"source":9
		},
		{
			"sampler":0,
			"source":10
		},
		{
			"sampler":0,
			"source":11
		},
		{
			"sampler":0,
			"source":12
		},
		{
			"sampler":0,
			"source":13
		},
		{
			"sampler":0,
			"source":14
		}
	],
	"images":[
		{
			"mimeType":"image/jpeg",
			"name":"Concrete wall_Normal",
			"uri":"Textures/Concrete%20wall_Normal.jpg"
		},
		{
			"mimeType":"image/jpeg",
			"name":"Concrete wall_BaseColor",
			"uri":"Textures/Concrete%20wall_BaseColor.jpg"
		},
		{
			"mimeType":"image/png",
			"name":"Concrete wall_Roughness",
			"uri":"Textures/Concrete%20wall_Roughness.png"
		},
		{
			"mimeType":"image/jpeg",
			"name":"garage_floor_nor_gl_4k",
			"uri":"Textures/garage_floor_nor_gl_4k.jpg"
		},
		{
			"mimeType":"image/png",
			"name":"garage_floor_rough_4k",
			"uri":"Textures/garage_floor_rough_4k.png"
		},
		{
			"mimeType":"image/png",
			"name":"garage_floor_rough_4k",
			"uri":"Textures/garage_floor_rough_4k-1.png"
		},
		{
			"mimeType":"image/png",
			"name":"Wood02_normal",
			"uri":"Textures/Wood02_normal.png"
		},
		{
			"mimeType":"image/png",
			"name":"Wood02_basecolor",
			"uri":"Textures/Wood02_basecolor.png"
		},
		{
			"mimeType":"image/png",
			"name":"Wood02_PBRset",
			"uri":"Textures/Wood02_PBRset.png"
		},
		{
			"mimeType":"image/jpeg",
			"name":"marble-10_normal",
			"uri":"Textures/marble-10_normal.jpg"
		},
		{
			"mimeType":"image/jpeg",
			"name":"marble-10_diffuse",
			"uri":"Textures/marble-10_diffuse.jpg"
		},
		{
			"mimeType":"image/png",
			"name":"marble-10_smooth",
			"uri":"Textures/marble-10_smooth.png"
		},
		{
			"mimeType":"image/jpeg",
			"name":"red_carpet_normal",
			"uri":"Textures/red_carpet_normal.jpg"
		},
		{
			"mimeType":"image/jpeg",
			"name":"red_carpet_color",
			"uri":"Textures/red_carpet_color.jpg"
		},
		{
			"mimeType":"image/png",
			"name":"red_carpet_roughness",
			"uri":"Textures/red_carpet_roughness.png"
		}
	],
	"accessors":[
		{
			"bufferView":0,
			"componentType":5126,
			"count":7658,
			"max":[
				7.722171306610107,
				0.6387819647789001,
				1.2947341203689575
			],
			"min":[
				-3.5712075233459473,
				0.0027449973858892918,
				-9.951431274414062
			],
			"type":"VEC3"
		},
		{
			"bufferView":1,
			"componentType":5126,
			"count":7658,
			"type":"VEC3"
		},
		{
			"bufferView":2,
			"componentType":5126,
			"count":7658,
			"type":"VEC2"
		},
		{
			"bufferView":3,
			"componentType":5126,
			"count":7658,
			"type":"VEC2"
		},
		{
			"bufferView":4,
			"componentType":5123,
			"count":29760,
			"type":"SCALAR"
		},
		{
			"bufferView":5,
			"componentType":5126,
			"count":303,
			"max":[
				7.604422092437744,
				0.6173562407493591,
				-0.515951931476593
			],
			"min":[
				-1.2568567991256714,
				0.061194293200969696,
				-9.559016227722168
			],
			"type":"VEC3"
		},
		{
			"bufferView":6,
			"componentType":5126,
			"count":303,
			"type":"VEC3"
		},
		{
			"bufferView":7,
			"componentType":5126,
			"count":303,
			"type":"VEC2"
		},
		{
			"bufferView":8,
			"componentType":5126,
			"count":303,
			"type":"VEC2"
		},
		{
			"bufferView":9,
			"componentType":5123,
			"count":936,
			"type":"SCALAR"
		},
		{
			"bufferView":10,
			"componentType":5126,
			"count":1070,
			"max":[
				5.992958068847656,
				0.34805554151535034,
				4.305105686187744
			],
			"min":[
				-5.424452304840088,
				-0.34805554151535034,
				-7.074719429016113
			],
			"type":"VEC3"
		},
		{
			"bufferView":11,
			"componentType":5126,
			"count":1070,
			"type":"VEC3"
		},
		{
			"bufferView":12,
			"componentType":5126,
			"count":1070,
			"type":"VEC2"
		},
		{
			"bufferView":13,
			"componentType":5123,
			"count":4992,
			"type":"SCALAR"
		},
		{
			"bufferView":14,
			"componentType":5126,
			"count":1261,
			"max":[
				7.79317045211792,
				0.6173568964004517,
				-1.201887845993042
			],
			"min":[
				-3.642206907272339,
				0.0027445568703114986,
				-10.022429466247559
			],
			"type":"VEC3"
		},
		{
			"bufferView":15,
			"componentType":5126,
			"count":1261,
			"type":"VEC3"
		},
		{
			"bufferView":16,
			"componentType":5126,
			"count":1261,
			"type":"VEC2"
		},
		{
			"bufferView":17,
			"componentType":5123,
			"count":4464,
			"type":"SCALAR"
		},
		{
			"bufferView":18,
			"componentType":5126,
			"count":4202,
			"max":[
				7.811171054840088,
				0.638800323009491,
				-1.1838877201080322
			],
			"min":[
				-3.6602067947387695,
				-0.004119663964956999,
				-10.04042911529541
			],
			"type":"VEC3"
		},
		{
			"bufferView":19,
			"componentType":5126,
			"count":4202,
			"type":"VEC3"
		},
		{
			"bufferView":20,
			"componentType":5126,
			"count":4202,
			"type":"VEC2"
		},
		{
			"bufferView":21,
			"componentType":5123,
			"count":13128,
			"type":"SCALAR"
		},
		{
			"bufferView":22,
			"componentType":5126,
			"count":810,
			"max":[
				7.623432159423828,
				0.005761665292084217,
				1.2335591316223145
			],
			"min":[
				-3.44637393951416,
				-0.00023965118452906609,
				-9.83084774017334
			],
			"type":"VEC3"
		},
		{
			"bufferView":23,
			"componentType":5126,
			"count":810,
			"type":"VEC3"
		},
		{
			"bufferView":24,
			"componentType":5126,
			"count":810,
			"type":"VEC2"
		},
		{
			"bufferView":25,
			"componentType":5126,
			"count":810,
			"type":"VEC2"
		},
		{
			"bufferView":26,
			"componentType":5123,
			"count":1836,
			"type":"SCALAR"
		},
		{
			"bufferView":27,
			"componentType":5126,
			"count":384,
			"max":[
				0.7574048638343811,
				0.04566418379545212,
				0.7274196147918701
			],
			"min":[
				-0.6974343061447144,
				-0.06227343529462814,
				-0.7274196147918701
			],
			"type":"VEC3"
		},
		{
			"bufferView":28,
			"componentType":5126,
			"count":384,
			"type":"VEC3"
		},
		{
			"bufferView":29,
			"componentType":5126,
			"count":384,
			"type":"VEC2"
		},
		{
			"bufferView":30,
			"componentType":5123,
			"count":576,
			"type":"SCALAR"
		},
		{
			"bufferView":31,
			"componentType":5126,
			"count":4,
			"max":[
				0.8631402850151062,
				0,
				0.9322412014007568
			],
			"min":[
				-0.4591655731201172,
				0,
				-0.39006471633911133
			],
			"type":"VEC3"
		},
		{
			"bufferView":32,
			"componentType":5126,
			"count":4,
			"type":"VEC3"
		},
		{
			"bufferView":33,
			"componentType":5126,
			"count":4,
			"type":"VEC2"
		},
		{
			"bufferView":34,
			"componentType":5123,
			"count":6,
			"type":"SCALAR"
		},
		{
			"bufferView":35,
			"componentType":5126,
			"count":16430,
			"max":[
				7.73286247253418,
				0.37400221824645996,
				1.301223635673523
			],
			"min":[
				-3.5818989276885986,
				0.3123266100883484,
				-9.96108341217041
			],
			"type":"VEC3"
		},
		{
			"bufferView":36,
			"componentType":5126,
			"count":16430,
			"type":"VEC3"
		},
		{
			"bufferView":37,
			"componentType":5126,
			"count":16430,
			"type":"VEC2"
		},
		{
			"bufferView":38,
			"componentType":5123,
			"count":66960,
			"type":"SCALAR"
		}
	],
	"bufferViews":[
		{
			"buffer":0,
			"byteLength":91896,
			"byteOffset":0,
			"target":34962
		},
		{
			"buffer":0,
			"byteLength":91896,
			"byteOffset":91896,
			"target":34962
		},
		{
			"buffer":0,
			"byteLength":61264,
			"byteOffset":183792,
			"target":34962
		},
		{
			"buffer":0,
			"byteLength":61264,
			"byteOffset":245056,
			"target":34962
		},
		{
			"buffer":0,
			"byteLength":59520,
			"byteOffset":306320,
			"target":34963
		},
		{
			"buffer":0,
			"byteLength":3636,
			"byteOffset":365840,
			"target":34962
		},
		{
			"buffer":0,
			"byteLength":3636,
			"byteOffset":369476,
			"target":34962
		},
		{
			"buffer":0,
			"byteLength":2424,
			"byteOffset":373112,
			"target":34962
		},
		{
			"buffer":0,
			"byteLength":2424,
			"byteOffset":375536,
			"target":34962
		},
		{
			"buffer":0,
			"byteLength":1872,
			"byteOffset":377960,
			"target":34963
		},
		{
			"buffer":0,
			"byteLength":12840,
			"byteOffset":379832,
			"target":34962
		},
		{
			"buffer":0,
			"byteLength":12840,
			"byteOffset":392672,
			"target":34962
		},
		{
			"buffer":0,
			"byteLength":8560,
			"byteOffset":405512,
			"target":34962
		},
		{
			"buffer":0,
			"byteLength":9984,
			"byteOffset":414072,
			"target":34963
		},
		{
			"buffer":0,
			"byteLength":15132,
			"byteOffset":424056,
			"target":34962
		},
		{
			"buffer":0,
			"byteLength":15132,
			"byteOffset":439188,
			"target":34962
		},
		{
			"buffer":0,
			"byteLength":10088,
			"byteOffset":454320,
			"target":34962
		},
		{
			"buffer":0,
			"byteLength":8928,
			"byteOffset":464408,
			"target":34963
		},
		{
			"buffer":0,
			"byteLength":50424,
			"byteOffset":473336,
			"target":34962
		},
		{
			"buffer":0,
			"byteLength":50424,
			"byteOffset":523760,
			"target":34962
		},
		{
			"buffer":0,
			"byteLength":33616,
			"byteOffset":574184,
			"target":34962
		},
		{
			"buffer":0,
			"byteLength":26256,
			"byteOffset":607800,
			"target":34963
		},
		{
			"buffer":0,
			"byteLength":9720,
			"byteOffset":634056,
			"target":34962
		},
		{
			"buffer":0,
			"byteLength":9720,
			"byteOffset":643776,
			"target":34962
		},
		{
			"buffer":0,
			"byteLength":6480,
			"byteOffset":653496,
			"target":34962
		},
		{
			"buffer":0,
			"byteLength":6480,
			"byteOffset":659976,
			"target":34962
		},
		{
			"buffer":0,
			"byteLength":3672,
			"byteOffset":666456,
			"target":34963
		},
		{
			"buffer":0,
			"byteLength":4608,
			"byteOffset":670128,
			"target":34962
		},
		{
			"buffer":0,
			"byteLength":4608,
			"byteOffset":674736,
			"target":34962
		},
		{
			"buffer":0,
			"byteLength":3072,
			"byteOffset":679344,
			"target":34962
		},
		{
			"buffer":0,
			"byteLength":1152,
			"byteOffset":682416,
			"target":34963
		},
		{
			"buffer":0,
			"byteLength":48,
			"byteOffset":683568,
			"target":34962
		},
		{
			"buffer":0,
			"byteLength":48,
			"byteOffset":683616,
			"target":34962
		},
		{
			"buffer":0,
			"byteLength":32,
			"byteOffset":683664,
			"target":34962
		},
		{
			"buffer":0,
			"byteLength":12,
			"byteOffset":683696,
			"target":34963
		},
		{
			"buffer":0,
			"byteLength":197160,
			"byteOffset":683708,
			"target":34962
		},
		{
			"buffer":0,
			"byteLength":197160,
			"byteOffset":880868,
			"target":34962
		},
		{
			"buffer":0,
			"byteLength":131440,
			"byteOffset":1078028,
			"target":34962
		},
		{
			"buffer":0,
			"byteLength":133920,
			"byteOffset":1209468,
			"target":34963
		}
	],
	"samplers":[
		{
			"magFilter":9729,
			"minFilter":9987
		}
	],
	"buffers":[
		{
			"byteLength":1343388,
			"uri":"Path.bin"
		}
	]
}
